<mxfile host="app.diagrams.net" modified="2020-11-06T11:24:38.995Z" agent="5.0 (Windows NT 10.0; Win64; x64) AppleWebKit/537.36 (KHTML, like Gecko) Chrome/86.0.4240.111 Safari/537.36" etag="E43AnifVt7Jqgbyv9HQY" version="13.9.1" type="github">
  <diagram id="5enU0nDd1a2b7SjZq2s-" name="Page-1">
    <mxGraphModel dx="795" dy="469" grid="1" gridSize="10" guides="1" tooltips="1" connect="1" arrows="1" fold="1" page="1" pageScale="1" pageWidth="850" pageHeight="1100" math="0" shadow="0">
      <root>
        <mxCell id="0" />
        <mxCell id="1" parent="0" />
        <mxCell id="pkR-QfdO9bk4xdStADOy-9" value="Front-end" style="shape=ext;double=1;rounded=0;whiteSpace=wrap;html=1;" parent="1" vertex="1">
          <mxGeometry x="40" y="240" width="230" height="120" as="geometry" />
        </mxCell>
        <mxCell id="pkR-QfdO9bk4xdStADOy-13" value="" style="shape=ext;double=1;whiteSpace=wrap;html=1;aspect=fixed;" parent="1" vertex="1">
          <mxGeometry x="495" y="160" width="265" height="265" as="geometry" />
        </mxCell>
        <mxCell id="pkR-QfdO9bk4xdStADOy-15" value="Request" style="text;html=1;strokeColor=none;fillColor=none;align=center;verticalAlign=middle;whiteSpace=wrap;rounded=0;fontSize=10;" parent="1" vertex="1">
          <mxGeometry x="360" y="260" width="40" height="20" as="geometry" />
        </mxCell>
        <mxCell id="pkR-QfdO9bk4xdStADOy-17" value="View" style="whiteSpace=wrap;html=1;aspect=fixed;fontSize=10;" parent="1" vertex="1">
          <mxGeometry x="50" y="440" width="60" height="60" as="geometry" />
        </mxCell>
        <mxCell id="pkR-QfdO9bk4xdStADOy-18" value="Ctrl" style="whiteSpace=wrap;html=1;aspect=fixed;fontSize=10;" parent="1" vertex="1">
          <mxGeometry x="125" y="440" width="60" height="60" as="geometry" />
        </mxCell>
        <mxCell id="pkR-QfdO9bk4xdStADOy-19" value="Service" style="whiteSpace=wrap;html=1;aspect=fixed;fontSize=10;" parent="1" vertex="1">
          <mxGeometry x="210" y="440" width="60" height="60" as="geometry" />
        </mxCell>
        <mxCell id="pkR-QfdO9bk4xdStADOy-20" value="" style="endArrow=classic;html=1;fontSize=10;exitX=0.25;exitY=1;exitDx=0;exitDy=0;entryX=0.5;entryY=0;entryDx=0;entryDy=0;" parent="1" source="pkR-QfdO9bk4xdStADOy-9" target="pkR-QfdO9bk4xdStADOy-17" edge="1">
          <mxGeometry width="50" height="50" relative="1" as="geometry">
            <mxPoint x="350" y="380" as="sourcePoint" />
            <mxPoint x="400" y="330" as="targetPoint" />
          </mxGeometry>
        </mxCell>
        <mxCell id="pkR-QfdO9bk4xdStADOy-21" value="" style="endArrow=classic;html=1;fontSize=10;exitX=0.5;exitY=1;exitDx=0;exitDy=0;entryX=0.5;entryY=0;entryDx=0;entryDy=0;" parent="1" source="pkR-QfdO9bk4xdStADOy-9" target="pkR-QfdO9bk4xdStADOy-18" edge="1">
          <mxGeometry width="50" height="50" relative="1" as="geometry">
            <mxPoint x="350" y="380" as="sourcePoint" />
            <mxPoint x="400" y="330" as="targetPoint" />
          </mxGeometry>
        </mxCell>
        <mxCell id="pkR-QfdO9bk4xdStADOy-22" value="" style="endArrow=classic;html=1;fontSize=10;exitX=0.75;exitY=1;exitDx=0;exitDy=0;entryX=0.5;entryY=0;entryDx=0;entryDy=0;" parent="1" source="pkR-QfdO9bk4xdStADOy-9" target="pkR-QfdO9bk4xdStADOy-19" edge="1">
          <mxGeometry width="50" height="50" relative="1" as="geometry">
            <mxPoint x="350" y="380" as="sourcePoint" />
            <mxPoint x="400" y="330" as="targetPoint" />
          </mxGeometry>
        </mxCell>
        <mxCell id="pkR-QfdO9bk4xdStADOy-23" value="" style="endArrow=classic;html=1;fontSize=10;exitX=0.5;exitY=1;exitDx=0;exitDy=0;" parent="1" source="pkR-QfdO9bk4xdStADOy-17" edge="1">
          <mxGeometry width="50" height="50" relative="1" as="geometry">
            <mxPoint x="350" y="580" as="sourcePoint" />
            <mxPoint x="80" y="560" as="targetPoint" />
          </mxGeometry>
        </mxCell>
        <mxCell id="pkR-QfdO9bk4xdStADOy-24" value="" style="endArrow=classic;html=1;fontSize=10;exitX=0.5;exitY=1;exitDx=0;exitDy=0;" parent="1" source="pkR-QfdO9bk4xdStADOy-18" edge="1">
          <mxGeometry width="50" height="50" relative="1" as="geometry">
            <mxPoint x="350" y="580" as="sourcePoint" />
            <mxPoint x="155" y="560" as="targetPoint" />
          </mxGeometry>
        </mxCell>
        <mxCell id="pkR-QfdO9bk4xdStADOy-25" value="" style="endArrow=classic;html=1;fontSize=10;exitX=0.5;exitY=1;exitDx=0;exitDy=0;" parent="1" source="pkR-QfdO9bk4xdStADOy-19" edge="1">
          <mxGeometry width="50" height="50" relative="1" as="geometry">
            <mxPoint x="350" y="580" as="sourcePoint" />
            <mxPoint x="240" y="560" as="targetPoint" />
          </mxGeometry>
        </mxCell>
        <mxCell id="pkR-QfdO9bk4xdStADOy-28" value="&amp;nbsp;Ctl React" style="ellipse;whiteSpace=wrap;html=1;aspect=fixed;fontSize=10;" parent="1" vertex="1">
          <mxGeometry x="125" y="560" width="60" height="60" as="geometry" />
        </mxCell>
        <mxCell id="pkR-QfdO9bk4xdStADOy-29" value="Llamada AJAX &lt;br&gt;(fetch)" style="ellipse;whiteSpace=wrap;html=1;aspect=fixed;fontSize=10;" parent="1" vertex="1">
          <mxGeometry x="210" y="560" width="60" height="60" as="geometry" />
        </mxCell>
        <mxCell id="pkR-QfdO9bk4xdStADOy-30" value="JSX (HTML+JS)" style="ellipse;whiteSpace=wrap;html=1;aspect=fixed;fontSize=10;" parent="1" vertex="1">
          <mxGeometry x="50" y="560" width="60" height="60" as="geometry" />
        </mxCell>
        <mxCell id="pkR-QfdO9bk4xdStADOy-59" style="edgeStyle=orthogonalEdgeStyle;rounded=0;orthogonalLoop=1;jettySize=auto;html=1;exitX=0.5;exitY=1;exitDx=0;exitDy=0;entryX=0.5;entryY=0;entryDx=0;entryDy=0;fontSize=10;" parent="1" source="pkR-QfdO9bk4xdStADOy-37" target="pkR-QfdO9bk4xdStADOy-58" edge="1">
          <mxGeometry relative="1" as="geometry" />
        </mxCell>
        <mxCell id="pkR-QfdO9bk4xdStADOy-37" value="LÃ³gica" style="whiteSpace=wrap;html=1;aspect=fixed;fontSize=10;" parent="1" vertex="1">
          <mxGeometry x="597.5" y="270" width="60" height="60" as="geometry" />
        </mxCell>
        <mxCell id="pkR-QfdO9bk4xdStADOy-38" value="API REST" style="whiteSpace=wrap;html=1;aspect=fixed;fontSize=10;" parent="1" vertex="1">
          <mxGeometry x="510" y="270" width="60" height="60" as="geometry" />
        </mxCell>
        <mxCell id="pkR-QfdO9bk4xdStADOy-55" style="edgeStyle=orthogonalEdgeStyle;rounded=0;orthogonalLoop=1;jettySize=auto;html=1;exitX=0.5;exitY=1;exitDx=0;exitDy=0;fontSize=10;entryX=0.5;entryY=0;entryDx=0;entryDy=0;" parent="1" source="pkR-QfdO9bk4xdStADOy-39" edge="1">
          <mxGeometry relative="1" as="geometry">
            <mxPoint x="710" y="450" as="targetPoint" />
          </mxGeometry>
        </mxCell>
        <mxCell id="pkR-QfdO9bk4xdStADOy-39" value="Persistencia" style="whiteSpace=wrap;html=1;aspect=fixed;fontSize=10;" parent="1" vertex="1">
          <mxGeometry x="680" y="270" width="60" height="60" as="geometry" />
        </mxCell>
        <mxCell id="pkR-QfdO9bk4xdStADOy-42" value="" style="endArrow=classic;html=1;fontSize=10;entryX=0;entryY=0.25;entryDx=0;entryDy=0;" parent="1" target="pkR-QfdO9bk4xdStADOy-38" edge="1">
          <mxGeometry width="50" height="50" relative="1" as="geometry">
            <mxPoint x="271" y="287" as="sourcePoint" />
            <mxPoint x="430" y="320" as="targetPoint" />
          </mxGeometry>
        </mxCell>
        <mxCell id="pkR-QfdO9bk4xdStADOy-49" value="Response" style="text;html=1;strokeColor=none;fillColor=none;align=center;verticalAlign=middle;whiteSpace=wrap;rounded=0;fontSize=10;" parent="1" vertex="1">
          <mxGeometry x="360" y="330" width="40" height="20" as="geometry" />
        </mxCell>
        <mxCell id="pkR-QfdO9bk4xdStADOy-50" value="" style="endArrow=classic;html=1;fontSize=10;entryX=0;entryY=0.75;entryDx=0;entryDy=0;" parent="1" target="pkR-QfdO9bk4xdStADOy-38" edge="1">
          <mxGeometry width="50" height="50" relative="1" as="geometry">
            <mxPoint x="270" y="315" as="sourcePoint" />
            <mxPoint x="430" y="320" as="targetPoint" />
          </mxGeometry>
        </mxCell>
        <mxCell id="pkR-QfdO9bk4xdStADOy-57" value="Entity Framework" style="ellipse;whiteSpace=wrap;html=1;aspect=fixed;fontSize=10;" parent="1" vertex="1">
          <mxGeometry x="675" y="450" width="70" height="70" as="geometry" />
        </mxCell>
        <mxCell id="pkR-QfdO9bk4xdStADOy-58" value="ASP.NET &lt;br&gt;MVC" style="ellipse;whiteSpace=wrap;html=1;aspect=fixed;fontSize=10;" parent="1" vertex="1">
          <mxGeometry x="592.5" y="450" width="70" height="70" as="geometry" />
        </mxCell>
        <mxCell id="pkR-QfdO9bk4xdStADOy-60" value="BBDD" style="shape=datastore;whiteSpace=wrap;html=1;fontSize=10;" parent="1" vertex="1">
          <mxGeometry x="830" y="260" width="70" height="80" as="geometry" />
        </mxCell>
        <mxCell id="pkR-QfdO9bk4xdStADOy-61" value="" style="endArrow=classic;html=1;fontSize=10;exitX=1;exitY=0.5;exitDx=0;exitDy=0;entryX=0;entryY=0.5;entryDx=0;entryDy=0;" parent="1" source="pkR-QfdO9bk4xdStADOy-39" target="pkR-QfdO9bk4xdStADOy-60" edge="1">
          <mxGeometry width="50" height="50" relative="1" as="geometry">
            <mxPoint x="630" y="400" as="sourcePoint" />
            <mxPoint x="680" y="350" as="targetPoint" />
          </mxGeometry>
        </mxCell>
        <mxCell id="pkR-QfdO9bk4xdStADOy-62" value="&lt;font style=&quot;font-size: 14px&quot;&gt;Back-end&lt;/font&gt;" style="text;html=1;strokeColor=none;fillColor=none;align=center;verticalAlign=middle;whiteSpace=wrap;rounded=0;fontSize=10;" parent="1" vertex="1">
          <mxGeometry x="592.5" y="210" width="87.5" height="20" as="geometry" />
        </mxCell>
      </root>
    </mxGraphModel>
  </diagram>
</mxfile>
